{"accessors":[{"bufferView":0,"byteOffset":0,"componentType":5126,"count":4,"max":[1,0,1],"min":[-1,0,-1],"normalized":false,"type":"VEC3"},{"bufferView":1,"byteOffset":0,"componentType":5126,"count":4,"max":[1,0,-0.000015,1],"min":[1,0,-0.000015,1],"normalized":false,"type":"VEC4"},{"bufferView":2,"byteOffset":0,"componentType":5126,"count":4,"max":[0,1,-0.000015],"min":[0,1,-0.000015],"normalized":false,"type":"VEC3"},{"bufferView":3,"byteOffset":0,"componentType":5126,"count":4,"max":[1,1],"min":[0,0],"normalized":false,"type":"VEC2"},{"bufferView":4,"byteOffset":0,"componentType":5125,"count":6,"max":[3],"min":[0],"normalized":false,"type":"SCALAR"},{"bufferView":5,"byteOffset":0,"componentType":5126,"count":24,"max":[0.5,0.5,0.5],"min":[-0.5,-0.5,-0.5],"normalized":false,"type":"VEC3"},{"bufferView":6,"byteOffset":0,"componentType":5126,"count":24,"max":[1,0,1,1],"min":[-1,-0.000015,-1,1],"normalized":false,"type":"VEC4"},{"bufferView":7,"byteOffset":0,"componentType":5126,"count":24,"max":[1,1,1],"min":[-1,-1,-1],"normalized":false,"type":"VEC3"},{"bufferView":8,"byteOffset":0,"componentType":5126,"count":24,"max":[1,1],"min":[0,0],"normalized":false,"type":"VEC2"},{"bufferView":9,"byteOffset":0,"componentType":5125,"count":36,"max":[23],"min":[0],"normalized":false,"type":"SCALAR"},{"bufferView":10,"byteOffset":0,"componentType":5126,"count":522,"max":[0.5,1,0.5],"min":[-0.5,-1,-0.5],"normalized":false,"type":"VEC3"},{"bufferView":11,"byteOffset":0,"componentType":5126,"count":522,"max":[1,0,1,1],"min":[-1,-0.000022,-1,1],"normalized":false,"type":"VEC4"},{"bufferView":12,"byteOffset":0,"componentType":5126,"count":522,"max":[1,1,1],"min":[-1,-1,-1],"normalized":false,"type":"VEC3"},{"bufferView":13,"byteOffset":0,"componentType":5126,"count":522,"max":[1,1],"min":[0,0],"normalized":false,"type":"VEC2"},{"bufferView":14,"byteOffset":0,"componentType":5125,"count":2304,"max":[521],"min":[0],"normalized":false,"type":"SCALAR"}],"asset":{"generator":"Godot Engine v4.0.2.stable.arch_linux@unknown","version":"2.0"},"bufferViews":[{"buffer":0,"byteLength":48,"byteOffset":0},{"buffer":0,"byteLength":64,"byteOffset":48},{"buffer":0,"byteLength":48,"byteOffset":112},{"buffer":0,"byteLength":32,"byteOffset":160},{"buffer":0,"byteLength":24,"byteOffset":192},{"buffer":0,"byteLength":288,"byteOffset":216},{"buffer":0,"byteLength":384,"byteOffset":504},{"buffer":0,"byteLength":288,"byteOffset":888},{"buffer":0,"byteLength":192,"byteOffset":1176},{"buffer":0,"byteLength":144,"byteOffset":1368},{"buffer":0,"byteLength":6264,"byteOffset":1512},{"buffer":0,"byteLength":8352,"byteOffset":7776},{"buffer":0,"byteLength":6264,"byteOffset":16128},{"buffer":0,"byteLength":4176,"byteOffset":22392},{"buffer":0,"byteLength":9216,"byteOffset":26568}],"buffers":[{"byteLength":35784,"uri":"shadowscene0.bin"}],"materials":[{"extensions":{},"pbrMetallicRoughness":{"baseColorFactor":[0.99999988079071,0.99999988079071,0.99999988079071,1],"metallicFactor":0,"roughnessFactor":1}},{"extensions":{},"pbrMetallicRoughness":{"baseColorFactor":[0.99999988079071,0.99999988079071,0.99999988079071,1],"metallicFactor":0,"roughnessFactor":1}},{"extensions":{},"pbrMetallicRoughness":{"baseColorFactor":[0.99999988079071,0.99999988079071,0.99999988079071,1],"metallicFactor":0,"roughnessFactor":1}}],"meshes":[{"extras":{"targetNames":[]},"primitives":[{"attributes":{"NORMAL":2,"POSITION":0,"TANGENT":1,"TEXCOORD_0":3},"indices":4,"material":0,"mode":4}]},{"extras":{"targetNames":[]},"primitives":[{"attributes":{"NORMAL":7,"POSITION":5,"TANGENT":6,"TEXCOORD_0":8},"indices":9,"material":1,"mode":4}]},{"extras":{"targetNames":[]},"primitives":[{"attributes":{"NORMAL":12,"POSITION":10,"TANGENT":11,"TEXCOORD_0":13},"indices":14,"material":2,"mode":4}]}],"nodes":[{"children":[1,2,3],"extensions":{},"name":"Node3D"},{"extensions":{},"mesh":0,"name":"MeshInstance3D","scale":[10,10,10]},{"extensions":{},"mesh":1,"name":"MeshInstance3D2","translation":[1.98272001743317,0.509999990463257,0]},{"extensions":{},"mesh":2,"name":"MeshInstance3D4","scale":[2,2,2],"translation":[-0.95752602815628,2.4342999458313,0]}],"scene":0,"scenes":[{"nodes":[0]}]}